# xmcd
#
# Track frame offsets: 
#        150
#        14031
#        26267
#        41859
#        60797
#        78667
#        92682
#        113830
#        124252
#        137524
#        149119
#        158455
#        179591
#
# Disc length: 2690 seconds
#
# Revision: 0
# Processed by: cddbd v1.5.2PL0 Copyright (c) Steve Scherf et al.
# Submitted via: ExactAudioCopyFreeDBPlugin 1.0
#
DISCID=ae0a800d
DTITLE=BLUES POWER BAND - INVASION
DYEAR=2014
DGENRE=Blues
TTITLE0=STAND
TTITLE1=GOOOOOOO
TTITLE2=SEEK and You'll find
TTITLE3=The harder the fall
TTITLE4=Out of sight
TTITLE5=Miss Grim Reaper
TTITLE6=Somebody's at the door
TTITLE7=1-234
TTITLE8=Rain
TTITLE9=Born to be bad
TTITLE10=Desert
TTITLE11=It's a breeze
TTITLE12=And now
EXTD=
EXTT0=
EXTT1=
EXTT2=
EXTT3=
EXTT4=
EXTT5=
EXTT6=
EXTT7=
EXTT8=
EXTT9=
EXTT10=
EXTT11=
EXTT12=
PLAYORDER=
